<svg width="97" height="107" viewBox="0 0 97 107" fill="none" xmlns="http://www.w3.org/2000/svg">
<path d="M65.5818 63.3091L18.4545 89.4909L1 79.8909V44.1091V26.6546L46.3818 1.34546L65.5818 11.8182V28.4L49.8727 37.1273L65.5818 45.8545V63.3091Z" fill="white"/>
<path d="M18.4545 37.1273V54.5818M18.4545 37.1273L65.5818 11.8182M18.4545 37.1273L1 26.6545M18.4545 89.4909L65.5818 63.3091V45.8546M18.4545 89.4909V72.0364M18.4545 89.4909L1 79.8909V44.1091M65.5818 45.8546L18.4545 72.0364M65.5818 45.8546L49.8727 37.1273M18.4545 72.0364V54.5818M18.4545 54.5818L1 44.1091M18.4545 54.5818L49.8727 37.1273M65.5818 11.8182V28.4L49.8727 37.1273M65.5818 11.8182L46.3818 1.34546L1 26.6545M1 44.1091V26.6545" stroke="black" stroke-width="1.74545"/>
<path d="M95.2545 79.0182L48.1273 105.2L30.6727 95.6V59.8182V42.3637L76.0545 17.0546L95.2545 27.5273V44.1091L79.5455 52.8364L95.2545 61.5637V79.0182Z" fill="white"/>
<path d="M48.1273 52.8364V70.2909M48.1273 52.8364L95.2545 27.5273M48.1273 52.8364L30.6727 42.3637M48.1273 105.2L95.2545 79.0182V61.5637M48.1273 105.2V87.7455M48.1273 105.2L30.6727 95.6V59.8182M95.2545 61.5637L48.1273 87.7455M95.2545 61.5637L79.5455 52.8364M48.1273 87.7455V70.2909M48.1273 70.2909L30.6727 59.8182M48.1273 70.2909L79.5455 52.8364M95.2545 27.5273V44.1091L79.5455 52.8364M95.2545 27.5273L76.0545 17.0546L30.6727 42.3637M30.6727 59.8182V42.3637" stroke="black" stroke-width="1.74545"/>
</svg>
